name Walk5.mot
datacolumns 19
datarows 20
range 1.77300000 1.79200000
endheader

                time	   L_ground_force_vx	   L_ground_force_vy	   L_ground_force_vz	   L_ground_force_px	   L_ground_force_py	   L_ground_force_pz	   R_ground_force_vx	   R_ground_force_vy	   R_ground_force_vz	   R_ground_force_px	   R_ground_force_py	   R_ground_force_pz	   L_ground_torque_x	   L_ground_torque_y	   L_ground_torque_z	   R_ground_torque_x	   R_ground_torque_y	   R_ground_torque_z	
          1.77300000	          0.01903077	          0.04046533	         -0.00365861	         -0.00007120	          0.00000000	         -0.00004165	        -19.73990508	        370.54440926	        -30.02542162	          0.56439156	          0.00000000	          0.06288329	          0.00000000	          0.00017824	          0.00000000	          0.00000000	          1.55650352	          0.00000000	
          1.77400000	          0.01722910	          0.03598418	         -0.00337369	         -0.00006759	          0.00000000	         -0.00003961	        -19.53006942	        368.97527364	        -29.72424279	          0.56521754	          0.00000000	          0.06290816	          0.00000000	          0.00016433	          0.00000000	          0.00000000	          1.50533248	          0.00000000	
          1.77500000	          0.01551551	          0.03174805	         -0.00310024	         -0.00006403	          0.00000000	         -0.00003759	        -19.32228695	        367.49910094	        -29.42829546	          0.56602460	          0.00000000	          0.06292976	          0.00000000	          0.00015098	          0.00000000	          0.00000000	          1.45472328	          0.00000000	
          1.77600000	          0.01388899	          0.02775213	         -0.00283833	         -0.00006053	          0.00000000	         -0.00003559	        -19.11640276	        366.11472454	        -29.13768362	          0.56681260	          0.00000000	          0.06294811	          0.00000000	          0.00013820	          0.00000000	          0.00000000	          1.40464701	          0.00000000	
          1.77700000	          0.01234827	          0.02399109	         -0.00258796	         -0.00005709	          0.00000000	         -0.00003364	        -18.91227087	        364.82089261	        -28.85249449	          0.56758145	          0.00000000	          0.06296326	          0.00000000	          0.00012598	          0.00000000	          0.00000000	          1.35507600	          0.00000000	
          1.77800000	          0.01089190	          0.02045917	         -0.00234910	         -0.00005374	          0.00000000	         -0.00003172	        -18.70975391	        363.61627393	        -28.57279841	          0.56833109	          0.00000000	          0.06297522	          0.00000000	          0.00011433	          0.00000000	          0.00000000	          1.30598360	          0.00000000	
          1.77900000	          0.00951819	          0.01715024	         -0.00212167	         -0.00005047	          0.00000000	         -0.00002984	        -18.50872242	        362.49946362	        -28.29864857	          0.56906151	          0.00000000	          0.06298403	          0.00000000	          0.00010323	          0.00000000	          0.00000000	          1.25734412	          0.00000000	
          1.78000000	          0.00822532	          0.01405784	         -0.00190556	         -0.00004728	          0.00000000	         -0.00002801	        -18.30905394	        361.46898894	        -28.03008058	          0.56977274	          0.00000000	          0.06298974	          0.00000000	          0.00009269	          0.00000000	          0.00000000	          1.20913279	          0.00000000	
          1.78100000	          0.00701129	          0.01117525	         -0.00170062	         -0.00004419	          0.00000000	         -0.00002624	        -18.11063177	        360.52331572	        -27.76711210	          0.57046483	          0.00000000	          0.06299239	          0.00000000	          0.00008269	          0.00000000	          0.00000000	          1.16132590	          0.00000000	
          1.78200000	          0.00587398	          0.00849552	         -0.00150669	         -0.00004119	          0.00000000	         -0.00002451	        -17.91334359	        359.66085581	        -27.50974233	          0.57113791	          0.00000000	          0.06299200	          0.00000000	          0.00007323	          0.00000000	          0.00000000	          1.11390089	          0.00000000	
          1.78300000	          0.00481118	          0.00601153	         -0.00132355	         -0.00003829	          0.00000000	         -0.00002284	        -17.71708015	        358.87997537	        -27.25795145	          0.57179209	          0.00000000	          0.06298861	          0.00000000	          0.00006430	          0.00000000	          0.00000000	          1.06683660	          0.00000000	
          1.78400000	          0.00382056	          0.00371602	         -0.00115097	         -0.00003549	          0.00000000	         -0.00002122	        -17.52173405	        358.17900347	        -27.01169983	          0.57242753	          0.00000000	          0.06298229	          0.00000000	          0.00005588	          0.00000000	          0.00000000	          1.02011331	          0.00000000	
          1.78500000	          0.00289974	          0.00160165	         -0.00098873	         -0.00003280	          0.00000000	         -0.00001966	        -17.32719904	        357.55624065	        -26.77092718	          0.57304441	          0.00000000	          0.06297308	          0.00000000	          0.00004797	          0.00000000	          0.00000000	          0.97371278	          0.00000000	
          1.78600000	          0.00204624	         -0.00033901	         -0.00083654	         -0.00003021	          0.00000000	         -0.00001816	        -17.13336981	        357.00996685	        -26.53555178	          0.57364294	          0.00000000	          0.06296103	          0.00000000	          0.00004055	          0.00000000	          0.00000000	          0.92761822	          0.00000000	
          1.78700000	          0.00125758	         -0.00211338	         -0.00069413	         -0.00002773	          0.00000000	         -0.00001672	        -16.94014222	        356.53844851	        -26.30547014	          0.57422331	          0.00000000	          0.06294623	          0.00000000	          0.00003361	          0.00000000	          0.00000000	          0.88181401	          0.00000000	
          1.78800000	          0.00053123	         -0.00372890	         -0.00056120	         -0.00002536	          0.00000000	         -0.00001534	        -16.74741359	        356.13994442	        -26.08055723	          0.57478577	          0.00000000	          0.06292874	          0.00000000	          0.00002713	          0.00000000	          0.00000000	          0.83628546	          0.00000000	
          1.78900000	         -0.00013538	         -0.00519297	         -0.00043746	         -0.00002309	          0.00000000	         -0.00001401	        -16.55508258	        355.81271042	        -25.86066777	          0.57533054	          0.00000000	          0.06290866	          0.00000000	          0.00002110	          0.00000000	          0.00000000	          0.79101838	          0.00000000	
          1.79000000	         -0.00074479	         -0.00651294	         -0.00032258	         -0.00002092	          0.00000000	         -0.00001275	        -16.36304844	        355.55500339	        -25.64563869	          0.57585788	          0.00000000	          0.06288605	          0.00000000	          0.00001550	          0.00000000	          0.00000000	          0.74599866	          0.00000000	
          1.79100000	         -0.00129958	         -0.00769607	         -0.00021626	         -0.00001886	          0.00000000	         -0.00001154	        -16.17120952	        355.36508499	        -25.43529274	          0.57636809	          0.00000000	          0.06286100	          0.00000000	          0.00001032	          0.00000000	          0.00000000	          0.70121180	          0.00000000	
          1.79200000	         -0.00180228	         -0.00874952	         -0.00011815	         -0.00001691	          0.00000000	         -0.00001040	        -15.97946119	        355.24122519	        -25.22944280	          0.57686145	          0.00000000	          0.06283360	          0.00000000	          0.00000554	          0.00000000	          0.00000000	          0.65664227	          0.00000000	
